<svg id="图层_1" data-name="图层 1" xmlns="http://www.w3.org/2000/svg" width="32" height="32" viewBox="0 0 32 32">
  <title>未标题-4</title>
  <path d="M16,25.118a1.493,1.493,0,0,1-1.4-.967,17.737,17.737,0,0,0-3.751-5.614c-1.65-1.858-3.208-3.613-3.7-6.467a9.772,9.772,0,0,1-.136-1.989L7,10a8.965,8.965,0,0,1,8.1-8.955c.079-.009.139-.011.2-.012C15.59,1.014,15.793,1,16,1l.106,0c.033,0,.119,0,.2.009.3.015.512.025.717.048l.187.027c.3.045.545.086.782.14A8.99,8.99,0,0,1,25,10l-.005.124C25,14.2,23.129,16.3,21.149,18.534A17.724,17.724,0,0,0,17.4,24.151,1.493,1.493,0,0,1,16,25.118ZM15.987,3c-.176,0-.315.011-.454.021l-.191.01A6.979,6.979,0,0,0,9,10l.006.1a7.97,7.97,0,0,0,.107,1.628c.4,2.292,1.707,3.769,3.225,5.479A21.323,21.323,0,0,1,16,22.349a21.32,21.32,0,0,1,3.658-5.143C21.523,15.1,23,13.436,23,10.2V10a6.968,6.968,0,0,0-5.38-6.8c-.252-.06-.441-.091-.631-.118l-.1-.016c-.25-.032-.413-.039-.575-.046L16.048,3Z" style="fill: #00a4ff"/>
  <path d="M16,7a3,3,0,1,1-3,3,3,3,0,0,1,3-3m0-2a5,5,0,1,0,5,5,5,5,0,0,0-5-5Z" style="fill: #00a4ff"/>
  <path d="M26.979,18.979H23.619q-.418.444-.846.888-.526.548-1.053,1.112h3.926l3.333,7h-26l3.333-7h3.952q-.524-.562-1.05-1.108-.43-.448-.851-.892H4.979l-5,11h32Z" style="fill: #00a4ff"/>
</svg>
