<?xml version="1.0" encoding="utf-8"?>
<!-- Generator: Adobe Illustrator 21.0.0, SVG Export Plug-In . SVG Version: 6.00 Build 0)  -->
<svg version="1.1" id="图层_1" xmlns="http://www.w3.org/2000/svg" xmlns:xlink="http://www.w3.org/1999/xlink" x="0px" y="0px"
	 width="32px" height="32px" viewBox="0 0 32 32" style="enable-background:new 0 0 32 32;" xml:space="preserve">
<style type="text/css">
	.st0{fill:#00A4FF;}
	.st1{fill:none;stroke:#00A4FF;stroke-width:2;stroke-miterlimit:10;}
	.st2{fill:none;stroke:#00A4FF;stroke-miterlimit:10;}
	.st3{fill:url(#SVGID_1_);}
	.st4{fill:none;stroke:#00A4FF;stroke-width:3;stroke-miterlimit:10;}
</style>
<path class="st0" d="M1,3v21h30V3H1z M29,22H3V5h26V22z"/>
<polygon id="Fill-2" class="st0" points="15,29 17,29 17,23 15,23 "/>
<polygon id="Fill-3" class="st0" points="6,29 26,29 26,27 6,27 "/>
<polygon id="Fill-4" class="st0" points="1,20 31,20 31,18 1,18 "/>
<line class="st1" x1="7.5" y1="11.4" x2="12.6" y2="11.4"/>
<line class="st1" x1="13.6" y1="6.9" x2="18.7" y2="6.9"/>
<line class="st1" x1="19.8" y1="9.1" x2="24.8" y2="9.1"/>
<line class="st1" x1="26.1" y1="16.1" x2="5.9" y2="16.1"/>
<line class="st1" x1="8.5" y1="11.4" x2="8.5" y2="16.1"/>
<line class="st1" x1="11.6" y1="11.4" x2="11.6" y2="16.1"/>
<line class="st1" x1="14.6" y1="6.9" x2="14.6" y2="16.1"/>
<line class="st1" x1="17.7" y1="6.9" x2="17.7" y2="16.1"/>
<line class="st1" x1="20.8" y1="9.1" x2="20.8" y2="16.1"/>
<line class="st1" x1="23.8" y1="9.1" x2="23.8" y2="16.1"/>
</svg>
