<?xml version="1.0" encoding="UTF-8"?>
<svg width="32px" height="32px" viewBox="0 0 32 32" version="1.1" xmlns="http://www.w3.org/2000/svg" xmlns:xlink="http://www.w3.org/1999/xlink">
    <!-- Generator: Sketch 51.2 (57519) - http://www.bohemiancoding.com/sketch -->
    <title>视频报警</title>
    <desc>Created with Sketch.</desc>
    <defs></defs>
    <g id="视频报警" stroke="none" stroke-width="1" fill="none" fill-rule="evenodd">
        <g id="基因" transform="translate(0.000000, 3.000000)">
            <g id="生物基因">
                <g id="O2o-" fill="#00A4FF">
                    <path d="M32,8 L32,25 L30,25 L30,8 L0,8 L0,6 L32,6 L32,8 Z" id="Combined-Shape" transform="translate(16.000000, 15.500000) scale(-1, -1) translate(-16.000000, -15.500000) "></path>
                    <path d="M32,2 L32,20 L30,20 L30,2 L0,2 L0,0 L32,0 L32,2 Z" id="Combined-Shape"></path>
                </g>
                <path d="M10,20 L22,20 L22,16 C22,12.6862915 19.3137085,10 16,10 C12.6862915,10 10,12.6862915 10,16 L10,20 Z" id="Rectangle" stroke="#00A4FF" stroke-width="2"></path>
                <path d="M8.68512831,8.292144 L9.33205029,9.0547002" id="Line-Copy" stroke="#00A4FF" stroke-width="2" stroke-linecap="square"></path>
                <path d="M22.7744844,8.24518098 L23.4214064,9.00773717" id="Line-Copy-2" stroke="#00A4FF" stroke-width="2" stroke-linecap="square" transform="translate(23.097945, 8.626459) scale(-1, 1) translate(-23.097945, -8.626459) "></path>
                <path d="M16,5 L16,6" id="Line-2" stroke="#00A4FF" stroke-width="2" stroke-linecap="square"></path>
            </g>
        </g>
        <rect id="Rectangle-2" fill="#00A4FF" x="6" y="22" width="20" height="2"></rect>
    </g>
</svg>