<svg id="图层_1" data-name="图层 1" xmlns="http://www.w3.org/2000/svg" width="32" height="32" viewBox="0 0 32 32">
  <title>数据安全</title>
  <g id="Page-1">
    <g id="数据安全">
      <g id="数据加密服务">
        <path id="Shape" d="M29.867.533H2.133v16.24S2.239,28.294,16,31.467c13.761-3.172,13.867-14.693,13.867-14.693V6.933H27.733v9.831a12.692,12.692,0,0,1-1.5,5.169C24.3,25.59,20.822,28.058,16,29.273,4.608,26.4,4.267,17.15,4.267,16.773V2.667h25.6ZM16,5.462A5.334,5.334,0,0,0,10.667,10.8v1.067H9.6v9.6H22.4v-9.6H21.333V10.8A5.333,5.333,0,0,0,16,5.462ZM12.8,10.8a3.2,3.2,0,0,1,6.4,0v1.067H12.8Zm7.467,8.533H11.733V14h8.533Z" style="fill: #00a4ff"/>
      </g>
    </g>
  </g>
</svg>
